HIERARCHY
ROOT Hips
{
 OFFSET 0.000000 0.000000 0.000000
 CHANNELS 6 Xposition Yposition Zposition Yrotation Xrotation Zrotation
 JOINT Chest
 {
  OFFSET 0.000000 9.585900 0.002600
  CHANNELS 3 Yrotation Xrotation Zrotation
  JOINT Chest2
  {
   OFFSET 0.000000 9.601200 -0.005300
   CHANNELS 3 Yrotation Xrotation Zrotation
   JOINT Chest3
   {
    OFFSET 0.000000 9.561800 0.000000
    CHANNELS 3 Yrotation Xrotation Zrotation
    JOINT Chest4
    {
     OFFSET 0.000000 9.552100 0.000000
     CHANNELS 3 Yrotation Xrotation Zrotation
     JOINT Neck
     {
      OFFSET 0.000000 14.453000 0.000000
      CHANNELS 3 Yrotation Xrotation Zrotation
      JOINT Head
      {
       OFFSET 0.000000 8.936500 -0.011300
       CHANNELS 3 Yrotation Xrotation Zrotation
       End Site
       {
        OFFSET 0.000000 17.073600 -0.006000
       }
      }
     }
     JOINT RightCollar
     {
      OFFSET -2.921100 9.558500 0.000000
      CHANNELS 3 Yrotation Xrotation Zrotation
      JOINT RightShoulder
      {
       OFFSET -13.519700 0.000000 0.000000
       CHANNELS 3 Yrotation Xrotation Zrotation
       JOINT RightElbow
       {
        OFFSET 0.000000 -29.696600 0.000000
        CHANNELS 3 Yrotation Xrotation Zrotation
        JOINT RightWrist
        {
         OFFSET 0.000000 -24.004700 0.000000
         CHANNELS 3 Yrotation Xrotation Zrotation
         End Site
         {
          OFFSET 0.000000 -17.728500 0.000000
         }
        }
       }
      }
     }
     JOINT LeftCollar
     {
      OFFSET 2.921100 9.558500 0.000000
      CHANNELS 3 Yrotation Xrotation Zrotation
      JOINT LeftShoulder
      {
       OFFSET 13.519700 0.000000 0.000000
       CHANNELS 3 Yrotation Xrotation Zrotation
       JOINT LeftElbow
       {
        OFFSET 0.000000 -29.696600 0.000000
        CHANNELS 3 Yrotation Xrotation Zrotation
        JOINT LeftWrist
        {
         OFFSET 0.000000 -24.004700 0.000000
         CHANNELS 3 Yrotation Xrotation Zrotation
         End Site
         {
          OFFSET 0.000000 -17.728500 0.000000
         }
        }
       }
      }
     }
    }
   }
  }
 }
 JOINT RightHip
 {
  OFFSET -7.771700 -0.012900 -0.001300
  CHANNELS 3 Yrotation Xrotation Zrotation
  JOINT RightKnee
  {
   OFFSET 0.000000 -40.869800 0.001200
   CHANNELS 3 Yrotation Xrotation Zrotation
   JOINT RightAnkle
   {
    OFFSET 0.000000 -39.717900 0.002100
    CHANNELS 3 Yrotation Xrotation Zrotation
    JOINT RightToe
    {
     OFFSET 0.000000 -4.965400 11.033500
     CHANNELS 3 Yrotation Xrotation Zrotation
     End Site
     {
      OFFSET 0.000000 -1.423100 5.872300
     }
    }
   }
  }
 }
 JOINT LeftHip
 {
  OFFSET 7.771700 -0.012900 -0.001300
  CHANNELS 3 Yrotation Xrotation Zrotation
  JOINT LeftKnee
  {
   OFFSET 0.000000 -40.869800 0.001200
   CHANNELS 3 Yrotation Xrotation Zrotation
   JOINT LeftAnkle
   {
    OFFSET 0.000000 -39.717900 0.002100
    CHANNELS 3 Yrotation Xrotation Zrotation
    JOINT LeftToe
    {
     OFFSET 0.000000 -4.965400 11.033500
     CHANNELS 3 Yrotation Xrotation Zrotation
     End Site
     {
      OFFSET 0.000000 -1.423100 5.872300
     }
    }
   }
  }
 }
}
MOTION
Frames: 13
Frame Time: 0.008333
-64.350601 50.365443 -3.357032 163.994902 -7.649178 -0.097709 3.019672 7.614385 0.834993 0.127918 0.380343 0.004965 0.235497 0.645258 -0.016462 2.569619 7.231031 0.072412 2.560214 17.671961 -0.469512 4.876289 -2.922356 -1.726095 2.443103 5.697501 0.411934 -5.966837 -11.902831 -9.979415 -59.794844 -73.302151 89.499198 -2.846134 1.726677 -28.954480 -6.676511 2.733023 -0.834853 21.203957 -7.358530 4.750003 68.734188 -67.144097 -96.559916 1.719832 9.887608 12.533980 1.422172 -72.721287 -5.248086 -119.460848 77.939406 -118.396029 -1.646093 -17.085648 1.728275 -0.250953 0.867571 -0.115758 -10.619112 -76.157655 27.082931 117.765130 78.346609 114.994063 -15.475883 -22.903888 0.065931 -0.329216 -0.996189 -0.145054
-64.351592 50.366215 -3.351818 163.998430 -7.639366 -0.106516 3.019246 7.600816 0.838360 0.130614 0.376880 0.000850 0.234080 0.644784 -0.017124 2.569587 7.235291 0.079391 2.560245 17.671168 -0.472591 4.875217 -2.921826 -1.732941 2.448914 5.690877 0.401717 -5.974113 -11.896515 -9.967350 -59.775093 -73.311366 89.482587 -2.829344 1.748762 -28.942640 -6.672742 2.732217 -0.835608 21.197208 -7.348456 4.749920 68.955151 -67.397230 -96.678910 1.682224 9.923742 12.539452 1.377360 -72.730728 -5.207446 -119.422946 77.946188 -118.354733 -1.652324 -17.073599 1.721181 -0.243484 0.866110 -0.115069 -10.649047 -76.167612 27.121599 117.729592 78.352902 114.958207 -15.523570 -22.891653 0.074304 -0.339020 -0.989732 -0.148828
-64.350091 50.367322 -3.347444 163.987779 -7.638980 -0.127556 3.034557 7.595847 0.856042 0.133134 0.368208 -0.010318 0.231209 0.649903 -0.008490 2.573039 7.231263 0.074478 2.559144 17.669041 -0.481154 4.875278 -2.915856 -1.727032 2.448903 5.699862 0.413762 -5.968089 -11.900077 -9.970102 -59.763703 -73.312474 89.465340 -2.815379 1.766001 -28.946332 -6.671841 2.740462 -0.826272 21.192689 -7.339832 4.750008 69.161236 -67.628619 -96.794033 1.646048 9.959281 12.543320 1.297521 -72.731444 -5.118196 -119.371355 77.948084 -118.296264 -1.648319 -17.055288 1.709347 -0.238956 0.858528 -0.114961 -10.698985 -76.164597 27.187896 117.699223 78.354462 114.928168 -15.495785 -22.893460 0.060262 -0.359498 -0.978245 -0.144682
-64.352094 50.368608 -3.345086 163.987661 -7.644539 -0.128270 3.035569 7.594710 0.849512 0.132555 0.373140 -0.004583 0.231203 0.645663 -0.012627 2.574801 7.230090 0.071621 2.560620 17.674004 -0.473815 4.872808 -2.918464 -1.737611 2.449753 5.701818 0.410455 -5.955707 -11.908806 -9.983714 -59.761369 -73.292262 89.451536 -2.815802 1.771671 -28.949446 -6.670400 2.743943 -0.820140 21.189789 -7.334526 4.752700 69.340231 -67.833629 -96.893328 1.617337 9.991538 12.546898 1.280646 -72.725733 -5.106808 -119.355454 77.953158 -118.279441 -1.643890 -17.048367 1.707758 -0.241392 0.857901 -0.118748 -10.638977 -76.162839 27.133784 117.666685 78.359672 114.906770 -15.511238 -22.890235 0.057712 -0.352638 -0.973481 -0.138774
-64.354220 50.370054 -3.344346 163.982042 -7.659015 -0.126920 3.040168 7.602917 0.845069 0.132696 0.373135 -0.004578 0.232070 0.646955 -0.014433 2.579582 7.222002 0.064981 2.560399 17.679302 -0.467879 4.871337 -2.914304 -1.734933 2.447155 5.709747 0.415223 -5.950610 -11.909514 -9.988997 -59.741758 -73.301142 89.425250 -2.820095 1.779860 -28.948028 -6.673030 2.755674 -0.809389 21.184164 -7.327449 4.754432 69.505837 -68.015389 -96.985953 1.597473 10.019120 12.546504 1.282176 -72.710748 -5.106470 -119.344318 77.957467 -118.267040 -1.640399 -17.043990 1.707975 -0.245206 0.859006 -0.120998 -10.593205 -76.151909 27.093916 117.680377 78.361770 114.920313 -15.497509 -22.886336 0.064149 -0.381449 -0.976427 -0.147128
-64.357954 50.371327 -3.343505 163.985904 -7.669525 -0.119848 3.035961 7.609888 0.830895 0.132720 0.373000 -0.004673 0.231258 0.645641 -0.013645 2.581297 7.224404 0.068076 2.553595 17.672058 -0.484736 4.875361 -2.907981 -1.722108 2.434503 5.698748 0.392698 -5.940426 -11.895912 -9.971815 -59.736547 -73.308346 89.418601 -2.812484 1.789624 -28.947470 -6.672205 2.755616 -0.808581 21.168474 -7.304477 4.764830 69.700610 -68.168132 -97.110916 1.580425 10.043865 12.542976 1.301544 -72.699603 -5.132160 -119.336683 77.959783 -118.257278 -1.646587 -17.042725 1.709413 -0.239373 0.861964 -0.120845 -10.540600 -76.145443 27.039203 117.689414 78.365202 114.928526 -15.514501 -22.879400 0.077927 -0.377532 -0.981987 -0.150374
-64.359790 50.372148 -3.339877 163.983522 -7.665943 -0.129338 3.037737 7.593580 0.827719 0.133768 0.380023 0.001983 0.231504 0.643606 -0.014712 2.583413 7.228144 0.072197 2.549032 17.667432 -0.494059 4.870552 -2.904810 -1.720250 2.425956 5.693331 0.383732 -5.932877 -11.887517 -9.966752 -59.738765 -73.316769 89.419483 -2.817859 1.792221 -28.945832 -6.671879 2.749837 -0.814115 21.163756 -7.290427 4.780316 69.829924 -68.287469 -97.190400 1.561733 10.065935 12.542252 1.257379 -72.703089 -5.088277 -119.312812 77.967916 -118.227254 -1.658844 -17.034023 1.702710 -0.225151 0.861980 -0.119245 -10.570021 -76.148521 27.072851 117.681745 78.369032 114.918800 -15.506358 -22.879042 0.079961 -0.383836 -0.976625 -0.154736
-64.361808 50.373056 -3.338713 163.983618 -7.674712 -0.135561 3.038204 7.598084 0.830811 0.133298 0.377590 -0.000624 0.232155 0.645753 -0.012404 2.585229 7.223754 0.066171 2.545592 17.664525 -0.498089 4.867329 -2.900031 -1.720937 2.421595 5.696987 0.388005 -5.943062 -11.892561 -9.985971 -59.750034 -73.295933 89.445568 -2.817029 1.794040 -28.941327 -6.663683 2.745299 -0.811918 21.160696 -7.273317 4.795054 69.915635 -68.377095 -97.245338 1.543145 10.083542 12.544285 1.210049 -72.692735 -5.052630 -119.314784 77.980432 -118.233622 -1.639886 -17.030581 1.706873 -0.243796 0.861792 -0.129592 -10.584897 -76.138612 27.086621 117.687465 78.373204 114.918106 -15.470382 -22.880322 0.074365 -0.339741 -0.973365 -0.150056
-64.363082 50.373696 -3.337605 163.986618 -7.682786 -0.147386 3.036603 7.600813 0.838591 0.133141 0.372584 -0.005071 0.232460 0.650449 -0.008354 2.588358 7.204894 0.047036 2.544403 17.672598 -0.486173 4.864394 -2.894194 -1.723366 2.416675 5.715585 0.405822 -5.952642 -11.891561 -9.992577 -59.762051 -73.288096 89.469168 -2.804766 1.797865 -28.935348 -6.663400 2.769584 -0.791476 21.171976 -7.265505 4.797670 69.964936 -68.437985 -97.278450 1.536364 10.095501 12.538619 1.160741 -72.682644 -5.011722 -119.313248 77.990057 -118.232117 -1.628115 -17.026996 1.709185 -0.256829 0.862249 -0.132618 -10.628238 -76.128508 27.125600 117.674974 78.371535 114.903068 -15.447695 -22.884103 0.064867 -0.337461 -0.967876 -0.145856
-64.367605 50.373601 -3.334577 163.981509 -7.671256 -0.143091 3.042678 7.577345 0.828433 0.133276 0.372311 -0.005367 0.232509 0.649929 -0.008723 2.586988 7.200568 0.045347 2.540348 17.672245 -0.488250 4.859797 -2.892110 -1.724993 2.411674 5.726704 0.403601 -5.962304 -11.885969 -9.997128 -59.796679 -73.293323 89.516372 -2.805924 1.803197 -28.928979 -6.661019 2.781889 -0.787084 21.176904 -7.258075 4.802350 69.984207 -68.469691 -97.282091 1.545218 10.099695 12.522286 1.168743 -72.692878 -5.022565 -119.275316 77.997055 -118.191449 -1.624013 -17.025339 1.702721 -0.255696 0.869898 -0.130831 -10.598615 -76.142470 27.108196 117.652868 78.370161 114.882362 -15.496865 -22.882230 0.079723 -0.327641 -0.967564 -0.146354
-64.372060 50.373447 -3.334305 163.984584 -7.671730 -0.135610 3.037037 7.558895 0.812335 0.133087 0.371368 -0.005446 0.232709 0.657264 -0.006854 2.591018 7.190889 0.042526 2.536557 17.676677 -0.488473 4.839554 -2.905639 -1.739342 2.409641 5.742074 0.405629 -5.975722 -11.879960 -10.006385 -59.848915 -73.297204 89.574527 -2.799857 1.810266 -28.909939 -6.654368 2.798643 -0.782931 21.174655 -7.249470 4.806440 69.987427 -68.481218 -97.278032 1.518958 10.103725 12.531548 1.181233 -72.692098 -5.045753 -119.275880 78.003167 -118.192175 -1.623250 -17.027104 1.701299 -0.254824 0.878101 -0.126252 -10.559632 -76.147070 27.065274 117.666743 78.370633 114.893669 -15.502849 -22.875499 0.093479 -0.367493 -0.976262 -0.159451
-64.374660 50.372965 -3.334242 163.987128 -7.671372 -0.137703 3.034620 7.555826 0.813356 0.133093 0.371249 -0.005459 0.232461 0.648252 -0.009079 2.599991 7.180385 0.036989 2.529526 17.679247 -0.490944 4.824182 -2.904997 -1.745270 2.395745 5.752189 0.407284 -5.981816 -11.871241 -10.017826 -59.899245 -73.306603 89.634452 -2.749312 1.806672 -28.884752 -6.654995 2.814993 -0.778729 21.196167 -7.239281 4.806030 69.973018 -68.486710 -97.289068 1.544859 10.112187 12.534235 1.164860 -72.692545 -5.037133 -119.278759 78.008305 -118.194243 -1.620654 -17.024711 1.698826 -0.256084 0.878108 -0.126540 -10.547755 -76.151954 27.051639 117.667621 78.368142 114.895915 -15.493922 -22.871658 0.094549 -0.376211 -0.979275 -0.159986
-64.376296 50.372303 -3.335517 163.993709 -7.674194 -0.142598 3.033656 7.545779 0.811697 0.133342 0.370749 -0.005716 0.232856 0.647177 -0.009249 2.604464 7.162914 0.033843 2.524018 17.699645 -0.484756 4.809166 -2.903400 -1.754585 2.380930 5.771928 0.417341 -5.988510 -11.865080 -10.035704 -59.982515 -73.363955 89.710286 -2.783745 1.820446 -28.862580 -6.657912 2.836624 -0.774190 21.214132 -7.230427 4.803313 69.925914 -68.471416 -97.265463 1.574263 10.111148 12.523613 1.142091 -72.689155 -5.023146 -119.284617 78.006600 -118.195641 -1.623968 -17.025353 1.694004 -0.247941 0.877755 -0.123432 -10.557360 -76.147754 27.057495 117.658394 78.364927 114.884169 -15.495516 -22.879985 0.099259 -0.382623 -0.971095 -0.162741
